<?xml version="1.0" encoding="utf-8"?>
<!-- Generator: Adobe Illustrator 19.0.0, SVG Export Plug-In . SVG Version: 6.00 Build 0)  -->
<svg version="1.1" xmlns="http://www.w3.org/2000/svg" xmlns:xlink="http://www.w3.org/1999/xlink" x="0px" y="0px"
	 viewBox="329 7 1157 488" style="enable-background:new 329 7 1157 488;" xml:space="preserve">
<style type="text/css">
	.st0{fill:#151515;}
	.st1{fill:#FAFB66;enable-background:new    ;}
	.st2{fill:#00FB66;enable-background:new    ;}
	.st3{fill:#026FA6;enable-background:new    ;}
	.st4{fill:#02AD68;enable-background:new    ;}
	.st5{fill:#006D66;enable-background:new    ;}
	.st6{fill:#FA6DFC;enable-background:new    ;}
	.st7{fill:#FC6FFE;enable-background:new    ;}
	.st8{fill:#FC6FA6;enable-background:new    ;}
	.st9{fill:#006DFC;enable-background:new    ;}
	.st10{fill:#FCADFE;enable-background:new    ;}
	.st11{fill:#02ADFE;enable-background:new    ;}
	.st12{fill:#00FBFC;enable-background:new    ;}
	.st13{fill:#FCAD68;enable-background:new    ;}
	.st14{opacity:0.25;fill:#006D66;enable-background:new    ;}
</style>
<g id="text">
	<g id="queueable">
		<g>
			<path class="st0" d="M864.6,209.6c-5.3-4.8-12.3-7.3-21.1-7.3s-15.8,2.4-21.1,7.3c-5.2,4.8-7.8,12.5-7.8,22.9v45.6
				c0,9.9,2.3,17.2,7,22.1c4.6,4.8,10.9,7.5,18.9,8V320c0,2.1,1.1,3.2,3.2,3.2c0.8,0,1.5-0.3,2.1-0.8s0.9-1.3,0.9-2.4v-11.8
				c8-0.5,14.2-3.1,18.9-8c4.6-4.8,7-12.2,7-22.1v-45.6C872.6,222.1,869.9,214.4,864.6,209.6z M865.4,278.1c0,14.3-6.2,21.9-18.7,23
				v-11.2c0-2-1-3-3-3c-2.1,0-3.2,1-3.2,3v11.4c-12.5-1.1-18.7-8.8-18.7-23.1v-45.6c0-15.5,7.2-23.3,21.7-23.3
				c7,0,12.4,1.9,16.2,5.8c3.8,3.9,5.7,9.7,5.7,17.5V278.1z M948.5,202.3c-2.4,0-3.6,1-3.6,3V278c0,7.8-1.9,13.6-5.7,17.5
				s-9.2,5.8-16.2,5.8s-12.4-1.9-16.2-5.8s-5.7-9.7-5.7-17.5v-72.7c0-2-1.2-3-3.6-3c-2.4,0-3.6,1-3.6,3V278
				c0,10.4,2.6,18.1,7.9,22.9c5.3,4.8,12.3,7.3,21.1,7.3s15.9-2.4,21.2-7.3c5.3-4.8,8-12.5,8-22.9v-72.7
				C952.1,203.3,950.9,202.3,948.5,202.3z M1028.9,209.2c0.9,0,1.6-0.4,2.2-1.1c0.6-0.7,0.9-1.6,0.9-2.5c0-2.2-1-3.3-3-3.3h-51.2
				c-2.3,0-3.4,1.1-3.4,3.2v98.7c0,2.1,1.1,3.2,3.4,3.2h51.2c2,0,3-1.1,3-3.3c0-1-0.3-1.8-0.9-2.5c-0.6-0.7-1.3-1.1-2.2-1.1h-47.4
				v-42.4h22.8c2,0,3-1.1,3-3.2c0-1-0.3-1.8-0.9-2.4c-0.6-0.7-1.3-1-2.2-1h-22.8v-42.2h47.5V209.2z M1100.8,202.3
				c-2.4,0-3.6,1-3.6,3V278c0,7.8-1.9,13.6-5.7,17.5s-9.2,5.8-16.2,5.8s-12.4-1.9-16.2-5.8s-5.7-9.7-5.7-17.5v-72.7c0-2-1.2-3-3.6-3
				c-2.4,0-3.6,1-3.6,3V278c0,10.4,2.6,18.1,7.9,22.9c5.3,4.8,12.3,7.3,21.1,7.3c8.8,0,15.9-2.4,21.2-7.3c5.3-4.8,8-12.5,8-22.9
				v-72.7C1104.4,203.3,1103.2,202.3,1100.8,202.3z M1181.3,209.2c0.9,0,1.6-0.4,2.2-1.1c0.6-0.7,0.9-1.6,0.9-2.5c0-2.2-1-3.3-3-3.3
				h-51.2c-2.3,0-3.4,1.1-3.4,3.2v98.7c0,2.1,1.1,3.2,3.4,3.2h51.2c2,0,3-1.1,3-3.3c0-1-0.3-1.8-0.9-2.5c-0.6-0.7-1.3-1.1-2.2-1.1
				h-47.4v-42.4h22.8c2,0,3-1.1,3-3.2c0-1-0.3-1.8-0.9-2.4c-0.6-0.7-1.3-1-2.2-1h-22.8v-42.2h47.5V209.2z M1260.3,304.2l-30.7-100
				c-0.6-1.8-1.9-2.7-3.9-2.7s-3.4,0.9-3.9,2.6l-30.8,99.2c-0.1,0.2-0.1,0.5-0.1,0.9c0,1,0.4,1.7,1.2,2.3c0.8,0.6,1.7,0.9,2.8,0.9
				c1.6,0,2.6-0.7,3.1-2.2l7-22.8h41.4l7,22.8c0.4,1.4,1.3,2.2,2.9,2.2c1.1,0,2-0.2,2.9-0.7s1.3-1.1,1.3-1.8c0-0.2,0-0.3-0.1-0.5
				C1260.3,304.2,1260.3,304.2,1260.3,304.2z M1207,275.8l18.7-61.4l18.6,61.4H1207z M1318.2,250.5c3.7-1.6,6.7-4.5,8.9-8.7
				c2.2-4.2,3.3-9.3,3.3-15.3c0-9.3-2.6-15.6-7.7-19c-5.1-3.4-12.4-5.1-21.8-5.1h-22.4c-2.3,0-3.4,1.1-3.4,3.2v98.9
				c0,0.9,0.3,1.6,0.9,2.2c0.6,0.6,1.5,0.9,2.5,0.9h26.2c8.6,0,15.5-2.3,20.6-7c5.1-4.6,7.7-12.1,7.7-22.3v-2.6
				c0-7-1.3-12.4-3.8-16.2C1326.7,255.4,1323,252.5,1318.2,250.5z M1282.3,209.2h18.8c7.3,0,12.8,1.2,16.5,3.7s5.6,7.2,5.6,14.1
				c0,7.4-1.7,12.6-5.1,15.6s-8.9,4.5-16.5,4.5h-19.4v-37.9H1282.3z M1325.8,277.8c0,15.1-7.2,22.7-21.7,22.7h-21.8v-46.7h21.8
				c7.1,0,12.5,1.7,16.2,5.1c3.7,3.4,5.5,8.9,5.5,16.5V277.8z M1401.1,300.5h-42.4v-95.1c0-2-1.2-3-3.6-3s-3.6,1-3.6,3v98.9
				c0,2.1,1.1,3.2,3.4,3.2h46.1c1.8,0,2.7-1.1,2.7-3.4S1402.9,300.5,1401.1,300.5z M1471.8,300.5h-47.4v-42.4h22.8c2,0,3-1.1,3-3.2
				c0-1-0.3-1.8-0.9-2.4c-0.6-0.7-1.3-1-2.2-1h-22.8v-42.2h47.4c0.9,0,1.6-0.4,2.2-1.1s0.9-1.6,0.9-2.5c0-2.2-1-3.3-3-3.3h-51.2
				c-2.3,0-3.4,1.1-3.4,3.2v98.7c0,2.1,1.1,3.2,3.4,3.2h51.2c2,0,3-1.1,3-3.3c0-1-0.3-1.8-0.9-2.5S1472.7,300.5,1471.8,300.5z"/>
		</g>
	</g>
</g>
<g id="symbol">
	<polyline class="st1" points="755,381 755,171.5 727,155.4 727,330 701,345 701,379 643.5,412.8 643.5,445.2 	"/>
	<polyline class="st1" points="607.3,466 607.3,434 547.4,469.2 574.3,485 	"/>
	<polygon class="st2" points="607.3,399.2 547,434 393.5,344.7 393.5,378.5 547.4,469.2 607.3,434 	"/>
	<polygon class="st2" points="643.5,378.2 643.5,412.8 701,379 701,345 	"/>
	<polygon class="st3" points="643,169.5 670.5,153.7 701.5,171.7 701.5,345.3 643,379.1 	"/>
	<polygon class="st3" points="670.5,154.3 643.5,169.8 643.5,378.2 701,345 701,172 	"/>
	<polygon class="st4" points="643.5,169.8 643.5,169.8 670.5,154.3 546.8,82.5 423.1,154.3 523.4,96.1 	"/>
	<polygon class="st4" points="520,140.5 460.8,175.8 547,225 607.3,190.5 	"/>
	<polygon class="st3" points="546.5,369.6 577.5,351 577.5,309 546.5,326.2 546.5,224.7 607.8,189.6 607.8,399.5 546.5,434.9 	"/>
	<polygon class="st3" points="547,225 547,325.4 578,308.2 578,351.3 547,369.9 547,434 607.3,399.2 607.3,190.5 	"/>
	<path class="st5" d="M547,225"/>
	<polygon class="st5" points="546.7,434.4 393,345 393,171.2 423.6,153.4 423.6,299 547.2,369.4 546.8,370.3 422.6,299.6 
		422.6,155.2 394,171.8 394,344.4 547.3,433.6 	"/>
	<polyline class="st5" points="547,369.9 423.1,299.3 423.1,154.3 393.5,171.5 393.5,344.7 547,434 	"/>
	<polygon class="st5" points="460.1,275.4 460.3,175 547.5,224.7 547.5,326.2 	"/>
	<polygon class="st5" points="547,325.4 460.6,275.1 460.8,175.8 547,225 	"/>
	<polygon class="st6" points="366.5,122 366.5,156.5 396.4,139.1 	"/>
	<polygon class="st7" points="727,122 697.9,138.6 727,155.4 	"/>
	<polygon class="st8" points="701,345 727,330 727,155.4 697.9,138.6 670.5,154.3 701,172 	"/>
	<polyline class="st9" points="396.4,139.1 366.5,156.5 366.5,329 393.5,344.7 393.5,171.5 423.1,154.3 	"/>
	<polygon class="st10" points="670.5,154.3 727,122 549,17 366.5,122 396.4,139.1 520,67 	"/>
	<polygon class="st11" points="520,67 396.4,139.1 423.1,154.3 546.8,82.5 	"/>
	<polygon class="st12" points="393.5,344.7 366.5,329 366.5,156.5 339,172.5 339,379 520.5,485 547.4,469.2 393.5,378.5 	"/>
	<polygon class="st13" points="573.5,67 546.8,82.5 670.5,154.3 697.9,138.6 	"/>
	<polyline class="st14" points="423.1,154.3 423.1,299.3 547,369.9 547,325.4 460.6,275.1 460.8,175.8 	"/>
</g>
</svg>
